<?xml version="1.0" encoding="UTF-8"?>
<svg id="Calque_2" data-name="Calque 2" xmlns="http://www.w3.org/2000/svg" viewBox="0 0 80.61 18.27">
  <defs>
    <style>
      .cls-1, .cls-2 {
        isolation: isolate;
      }

      .cls-3 {
        fill: #eb6c37;
      }

      .cls-4 {
        letter-spacing: -.05em;
      }

      .cls-5 {
        letter-spacing: -.02em;
      }

      .cls-2 {
        fill: #fff;
        font-family: Kuunari-BlackItalic, Kuunari;
        font-size: 17.37px;
        font-style: italic;
        font-weight: 800;
      }

      .cls-6 {
        letter-spacing: 0em;
      }
    </style>
  </defs>
  <g id="Calque_1-2" data-name="Calque 1">
    <g class="cls-1">
      <text class="cls-2" transform="translate(0 14.85)"><tspan x="0" y="0">PEA</tspan><tspan class="cls-5" x="24.02" y="0">K</tspan><tspan class="cls-6" x="32.25" y="0">S</tspan><tspan class="cls-4" x="40.34" y="0">TA</tspan><tspan x="54.51" y="0">T</tspan></text>
    </g>
    <g>
      <polygon class="cls-3" points="75.2 10.7 75.2 14.93 78.09 14.93 78.09 7.86 75.2 10.7"/>
      <polygon class="cls-3" points="71.17 11.97 71.17 14.93 74.1 14.93 74.1 11.97 72.63 13.44 71.17 11.97"/>
      <polygon class="cls-3" points="67.59 11.68 67.59 14.93 70.03 14.93 70.03 11.09 69.12 10.18 67.59 11.68"/>
      <polygon class="cls-3" points="64.28 14.93 66.44 14.93 66.44 12.81 64.28 14.93"/>
      <polygon class="cls-3" points="80.61 2.27 79.21 6.56 78.42 5.85 72.61 11.69 69.1 8.66 62.49 14.93 60.41 14.93 69.05 6.53 72.61 9.58 77.33 4.85 76.47 4.07 80.61 2.27"/>
    </g>
  </g>
</svg>