<?xml version="1.0" encoding="UTF-8" standalone="no"?>
<!-- Created with Inkscape (http://www.inkscape.org/) -->

<svg
   version="1.1"
   id="svg1"
   width="1024"
   height="1024"
   viewBox="0 0 1024 1024"
   xmlns="http://www.w3.org/2000/svg"
   xmlns:svg="http://www.w3.org/2000/svg">
  <defs
     id="defs1" />
  <g
     id="g1">
    <path
       style="fill:#000000"
       d="m 514.83379,953.42163 c -38.923,-3.00152 -81.8558,-12.95258 -118.4384,-27.45191 -81.2441,-32.20069 -149.9757,-87.61978 -196.5586,-158.48751 -37.2717,-56.70249 -58.1578,-115.01019 -66.0886,-184.5 -2.3672,-20.7418 -2.3783,-65.25503 -0.021,-86.30487 8.9836,-80.23846 40.285,-154.50661 91.54,-217.19513 10.8985,-13.32971 34.5434,-37.56695 48.0384,-49.24178 40.182,-34.76255 90.549,-63.60992 139.3912,-79.83532 26.3753,-8.76191 61.3925,-16.0648 91.6991,-19.12399 16.6952,-1.68525 64.1184,-1.66125 80,0.0405 48.7604,5.22476 99.1685,19.03995 137.5,37.68421 83.7115,40.71693 147.4839,102.42152 189.1512,183.01796 23.8166,46.06828 37.7211,91.59405 43.9677,143.95844 2.2002,18.444 2.5146,65.87849 0.5534,83.5 -9.4564,84.96644 -38.3586,155.72406 -90.2713,221 -10.1399,12.75001 -35.6102,38.95087 -49.8107,51.2394 -83.4761,72.23653 -194.7259,109.86843 -300.6519,101.70002 z m 75.0616,-38.85551 c 14.2866,-1.91986 24.6887,-3.82546 41.603,-7.6215 7.5986,-1.70532 7.6043,-1.70905 9.5912,-6.33437 1.0935,-2.54542 9.6638,-22.17804 19.0452,-43.62804 9.3814,-21.45 21.3076,-48.9823 26.5028,-61.18288 l 9.4458,-22.18289 -26.3566,-35.81711 c -14.4961,-19.69942 -31.1884,-42.48029 -37.094,-50.62416 l -10.7374,-14.80704 -77.4818,0.56309 -77.4818,0.5631 -37.2278,49.87202 -37.2278,49.87201 8.8363,20.87193 c 7.5228,17.76908 30.434,70.93753 43.8856,101.84207 l 3.9044,8.97014 9.3964,2.2155 c 13.8782,3.27221 37.4916,7.16828 53.3965,8.81009 19.4336,2.00607 57.8532,1.32537 78,-1.38196 z M 368.86109,744.21086 c 1.6312,-2.32576 17.4001,-23.58277 35.0421,-47.23781 17.6421,-23.65504 32.3688,-43.4822 32.7261,-44.06036 0.3573,-0.57817 -1.7605,-8.22405 -4.7063,-16.99085 -4.5238,-13.46293 -30.4371,-97.85705 -37.638,-122.57884 l -2.2251,-7.63922 -35.5823,-13.0917 c -19.5702,-7.20043 -45.9322,-16.92472 -58.5822,-21.60953 -12.65,-4.6848 -23.0889,-8.51839 -23.1974,-8.51908 -0.1086,-6.9e-4 -7.9836,6.42179 -17.5,14.27217 -18.834,15.53671 -57.0847,46.59112 -76.5526,62.15043 l -12.25,9.79052 v 8.42125 c 0,25.86959 6.9665,66.54675 16.5038,96.36437 7.9139,24.74224 24.0101,61.31683 33.667,76.5 l 2.5441,4 26.3925,2.86024 c 52.7626,5.71804 109.497,11.46061 113.8926,11.52803 4.1867,0.0642 4.7064,-0.22537 7.4657,-4.15962 z m 390.1468,0.74379 c 36.0664,-3.64676 96.252,-10.0439 104.6952,-11.12807 4.5112,-0.57927 4.9896,-0.93274 7.757,-5.73086 5.6978,-9.87891 16.8394,-33.24151 21.7529,-45.61351 15.8968,-40.02682 24.7217,-80.07023 26.6665,-121 l 0.5939,-12.5 -5.721,-4.5 c -3.1465,-2.475 -26.6766,-21.97233 -52.289,-43.3274 -25.6124,-21.35506 -47.1351,-39.06747 -47.8283,-39.36091 -0.6931,-0.29343 -27.3043,9.26245 -59.136,21.2353 l -57.8758,21.76881 -12.7285,42.0921 c -7.0007,23.15065 -17.4151,56.21742 -23.1432,73.48171 -8.9458,26.96199 -10.2343,31.65254 -9.1355,33.25374 5.1568,7.51448 70.4091,94.79181 70.8918,94.82038 0.3369,0.0199 16.3119,-1.55113 35.5,-3.49129 z M 406.25149,468.66692 c 2.0041,-1.54841 9.0439,-6.57456 15.6439,-11.16923 18.8978,-13.15593 47.697,-33.7075 76.6349,-54.68798 l 26.6349,-19.31076 0.5994,-30.25837 c 0.3297,-16.6421 0.719,-44.36387 0.8651,-61.60392 l 0.2657,-31.34554 -18,-10.06103 c -9.9,-5.53357 -37.4835,-21.01357 -61.2967,-34.4 l -43.2967,-24.33898 -12.2653,5.52541 c -41.8466,18.85158 -79.6921,44.7794 -112.3427,76.96569 l -16.2308,16 1.5123,7.5 c 0.8318,4.125 6.4076,35.11852 12.3906,68.87449 5.983,33.75597 11.2497,61.73855 11.7038,62.18351 0.8375,0.82078 111.1075,42.79204 112.6816,42.88917 0.4708,0.0291 2.4958,-1.21405 4.5,-2.76246 z m 335.8449,-18.8244 c 30.6894,-11.90184 55.9776,-21.79293 56.1958,-21.9802 0.5061,-0.43422 28.0559,-135.32733 28.083,-137.50362 0.029,-2.35008 -24.4011,-25.70727 -39.7556,-38.00918 -23.1091,-18.51497 -46.8174,-33.76333 -72.2242,-46.45216 -21.4311,-10.70321 -31.8298,-14.81375 -34.4525,-13.61878 -1.1754,0.53557 -15.842,9.03298 -32.5923,18.88315 -16.7504,9.85016 -42.8915,25.02112 -58.0913,33.71324 l -27.6361,15.80385 -0.6814,34.15169 c -0.3747,18.78344 -0.5385,46.05493 -0.3639,60.60332 l 0.3175,26.45161 62.5,44.77875 c 34.375,24.62831 62.5904,44.78759 62.701,44.79839 0.1105,0.0108 25.3105,-9.71823 56,-21.62006 z"
       id="path1" />
  </g>
</svg>
