<?xml version="1.0" encoding="UTF-8"?>
<svg id="Calque_2" data-name="Calque 2" xmlns="http://www.w3.org/2000/svg" viewBox="0 0 12.65 13.57">
  <defs>
    <style>
      .cls-1 {
        fill: #fff;
      }
    </style>
  </defs>
  <g id="Calque_1-2" data-name="Calque 1">
    <g>
      <rect class="cls-1" x="2.38" y="6.43" width="1.86" height="1.86"/>
      <rect class="cls-1" x="2.38" y="9.47" width="1.86" height="1.86"/>
      <rect class="cls-1" x="5.4" y="9.47" width="1.86" height="1.86"/>
      <rect class="cls-1" x="8.41" y="9.47" width="1.86" height="1.86"/>
      <rect class="cls-1" x="5.4" y="6.43" width="1.86" height="1.86"/>
      <rect class="cls-1" x="8.41" y="6.43" width="1.86" height="1.86"/>
      <rect class="cls-1" x="3.09" y="0" width="1.22" height="3.08" rx=".61" ry=".61"/>
      <rect class="cls-1" x="8.33" y="0" width="1.22" height="3.08" rx=".61" ry=".61"/>
      <path class="cls-1" d="M11.16,1.04h-1.19v1.43c0,.55-.45,1-1,1s-1-.45-1-1v-1.43h-3.28v1.43c0,.55-.45,1-1,1s-1-.45-1-1v-1.43h-1.19c-.82,0-1.49.67-1.49,1.49v9.55c0,.82.67,1.49,1.49,1.49h9.67c.82,0,1.49-.67,1.49-1.49V2.53c0-.82-.67-1.49-1.49-1.49ZM12.08,12c0,.53-.43.96-.96.96H1.53c-.53,0-.96-.43-.96-.96v-7.13h11.5v7.13Z"/>
    </g>
  </g>
</svg>