<?xml version="1.0" encoding="UTF-8"?>
<svg id="Calque_2" data-name="Calque 2" xmlns="http://www.w3.org/2000/svg" viewBox="0 0 12.24 16.82">
  <defs>
    <style>
      .cls-1 {
        fill: #0f1527;
      }
    </style>
  </defs>
  <g id="Calque_1-2" data-name="Calque 1">
    <path class="cls-1" d="M11.76,15.85h-.52c-.01-.6-.11-1.56-.15-1.77-.46-2.61-1.38-3.45-3.22-5.05-1-.86.34-1.26.93-1.78,1.66-1.47,2.46-4.09,2.42-6.29h.48c.27,0,.48-.22.48-.48s-.22-.48-.48-.48H.48c-.27,0-.48.22-.48.48s.22.48.48.48h.57c-.03.53.13,1.78.17,2,.3,1.61,1.19,3.35,2.42,4.42.42.37,1.46.67,1.04,1.4-.09.16-.92.63-1.13.82-1.69,1.47-2.46,4-2.5,6.24h-.52c-.27,0-.48.22-.48.48s.22.48.48.48h11.22c.27,0,.48-.22.48-.48s-.22-.48-.48-.48ZM10.59,15.85c-.27-2.1-3.79-2.95-4.21-4.66-.12-.51-.11-2.5.04-2.98.16-.48,1.36-.95,1.8-1.31.97-.79,1.57-2.02,1.98-3.18-.03-.13-.59-.16-.73-.16-1.32.03-2.73,1.07-4.09,1.2-1.02.1-2.02-.13-3-.33.41,1.08,1.15,2.12,2.11,2.78.32.22,1.13.49,1.31.82.2.37.24,2.38.18,2.85-.25,2.03-3.95,2.75-4.27,4.97h-.31c.07-1.97.63-4.09,1.96-5.55.44-.48,1.71-1.16,1.78-1.69.11-.84-.62-.95-1.09-1.36C2.35,5.81,1.61,3.88,1.4,1.68c-.01-.16.03-.48,0-.72h9.52c-.08,2.04-.61,4.24-2.05,5.74-.73.76-2.62,1.39-1.22,2.6,2.09,1.81,2.87,2.73,3.22,5.67.01.12.01.54.02.88h-.29Z"/>
  </g>
</svg>