<?xml version="1.0" encoding="UTF-8" standalone="no"?>
<!-- Created with Inkscape (http://www.inkscape.org/) -->

<svg
   version="1.1"
   id="svg1"
   width="1024"
   height="1024"
   viewBox="0 0 1024 1024"
   xmlns="http://www.w3.org/2000/svg"
   xmlns:svg="http://www.w3.org/2000/svg">
  <defs
     id="defs1" />
  <g
     id="g1">
    <path
       style="fill:#000000"
       d="m 907.86094,830.62801 c -1.4515,-0.9589 -6.0113,-5.5684 -10.1328,-10.2434 -4.1216,-4.675 -20.7993,-22 -37.0616,-38.5 l -29.5678,-29.99999 -0.049,-10.88592 -0.049,-10.88593 -4.6396,0.63593 c -2.5517,0.34975 -19.1505,0.63592 -36.8863,0.63592 h -32.2467 l -0.157,10.71909 c -0.1777,12.13937 -1.1679,14.28091 -6.6029,14.28091 -4.4735,0 -5.5276,-1.75629 -6.1726,-10.28493 l -0.5601,-7.40512 -8.1174,2.36208 c -17.23,5.01377 -42.1943,7.04597 -61.8673,5.03627 l -7.75,-0.7917 v 3.985 c 0,2.98436 -0.5581,4.37588 -2.2225,5.5417 -5.0157,3.51313 -9.8629,0.34713 -10.7163,-6.99948 l -0.5612,-4.83212 -9.2851,-2.26947 c -5.1068,-1.24821 -13.2626,-3.86084 -18.124,-5.80585 l -8.8389,-3.53638 h -22.626 -22.626 v 10.87756 c 0,12.07813 -0.6357,13.45577 -6.2092,13.45577 -5.3905,0 -6.7908,-2.97843 -6.7908,-14.44411 v -9.88922 h -42 -42 v 10.04545 c 0,9.33222 -0.1743,10.21974 -2.4546,12.5 -2.9889,2.98895 -5.4627,3.11197 -8.3569,0.41559 -1.982,-1.84651 -2.1885,-3.02628 -2.1885,-12.5 v -10.46104 h -41.5 -41.5 v 10.04545 c 0,9.33222 -0.1743,10.21974 -2.4546,12.5 -2.7564,2.7564 -5.277,3.10252 -8.0149,1.10057 -2.025,-1.48072 -3.3352,-8.26251 -3.4575,-17.89602 l -0.073,-5.75 h -38 -38 v 10.32569 c 0,9.50035 -0.185,10.49948 -2.3145,12.5 -2.8898,2.71486 -4.6996,2.73773 -8.0507,0.10173 -2.5455,-2.0023 -2.6348,-2.42617 -2.6348,-12.5 v -10.42742 h -37.5 -37.5 l -0.019,10.25 -0.019,10.25 -38.7315,38.61879 c -21.3023,21.2403 -39.7144,39.1278 -40.9157,39.75 -1.2014,0.6222 -4.5468,1.1312 -7.4343,1.1312 -6.7343,0 -13.183802,-3.0794 -16.418102,-7.8391 l -2.4634,-3.6252 V 550.90249 c 0,-254.12103 0.098,-269.21058 1.75,-272.49794 0.9616,-1.91403 3.2442,-4.47911 5.072402,-5.70018 l 3.3239,-2.22011 411.6761,-0.30011 c 364.409,-0.26565 412.0085,-0.12785 414.5715,1.20018 1.5925,0.82516 3.8425,2.77076 5,4.32357 l 2.1045,2.82327 0.2572,270.54699 0.2573,270.54695 -2.1638,3.501 c -1.19,1.9256 -4.2064,4.7965 -6.703,6.3798 -3.8998,2.4732 -5.5329,2.8778 -11.5935,2.8721 -5.0236,-0.01 -7.8139,-0.5084 -9.6933,-1.75 z m -10.0929,-269.35243 c -0.01,-117.20996 -0.2954,-215.41312 -0.6405,-218.22923 l -0.6275,-5.1202 -19.8743,21.97924 -19.8742,21.97923 0.6238,126.5 c 0.3431,69.575 0.6734,149.45 0.7341,177.5 l 0.1103,51 19.2614,18.75 c 10.5937,10.31249 19.495,18.74999 19.7806,18.74999 0.2857,0 0.5135,-95.89906 0.5063,-213.10903 z m -745.4719,194.42475 c 8.9121,-8.62637 17.4414,-17.03241 18.9539,-18.68011 l 2.75,-2.99582 V 556.74068 379.45695 l -19.1497,-21.28616 c -10.5324,-11.70739 -19.5324,-21.71367 -20,-22.23617 -0.4677,-0.5225 -0.8503,97.24 -0.8503,217.25 0,151.21036 0.3211,218.19999 1.0461,218.19999 0.5753,0 8.3378,-7.0579 17.25,-15.68428 z m 555.2039,-30.63397 c 1.1,-0.24627 4.3059,-0.75985 7.1243,-1.14131 4.2536,-0.57569 5.3308,-1.14784 6.3389,-3.36699 0.6681,-1.47039 5.6746,-10.434 11.1257,-19.91913 5.4511,-9.48512 9.9111,-17.87312 9.9111,-18.63999 0,-0.76687 -1.9269,-4.03131 -4.282,-7.25431 -2.355,-3.22301 -7.3225,-10.24103 -11.0388,-15.59561 -3.7163,-5.35458 -7.6077,-10.19093 -8.6475,-10.74744 -1.2628,-0.67581 -11.2429,-0.71028 -30.0516,-0.1038 -27.5349,0.88786 -28.2168,0.96006 -30.6727,3.24744 -2.5793,2.40225 -21.3074,28.1129 -21.3074,29.25159 0,0.34877 4.4378,8.16121 9.8619,17.36097 5.4241,9.19976 10.9054,18.52684 12.1807,20.72684 1.2753,2.2 2.3987,4.12383 2.4966,4.27519 0.098,0.15135 4.404,0.92047 9.5693,1.70915 8.6221,1.31649 31.8451,1.43909 37.3915,0.1974 z m -432.5,-43.18174 v -36.5 h -37.5 -37.5 v 36.5 36.5 h 37.5 37.5 z m 89,0 v -36.5 h -38 -38 v 36.5 36.5 h 38 38 z m 84.1627,35.5 h 12.8373 v -36 -36 h -41.5 -41.5 v 36.66098 36.66098 l 28.6627,-0.66098 c 15.7644,-0.36354 34.4394,-0.66098 41.5,-0.66098 z m 382.1043,-29.16722 c 0.1281,-16.31697 0.1644,-29.59197 0.081,-29.5 -0.084,0.092 -2.0298,3.73978 -4.3245,8.10624 -8.9841,17.09578 -25.0112,36.72037 -38.9929,47.74555 l -4.4699,3.52469 23.737,-0.10463 23.7369,-0.10463 z m -272.267,10.07159 c 0,-17.07805 -0.1986,-19.37608 -1.8792,-21.75 -2.4047,-3.39672 -11.5206,-22.49092 -13.0833,-27.40437 l -1.1926,-3.75 h -33.9225 -33.9224 v 36 36 h 42 42 z m 33,17.32701 c -1.375,-0.91505 -6.4614,-5.49624 -11.3031,-10.18043 l -8.803,-8.51671 0.1763,10.23288 0.1763,10.23288 11.1267,-0.0525 c 10.7203,-0.0505 11.0354,-0.11322 8.6268,-1.71617 z m 183.7333,-45.75594 c 24.6094,-5.93321 24.7876,-5.99829 27.0853,-9.89263 6.8003,-11.52562 13.7848,-31.67163 16.1102,-46.46781 l 1.0035,-6.385 -9.6436,-12.115 c -5.304,-6.66325 -11.826,-14.6652 -14.4933,-17.78211 l -4.8497,-5.66711 -19.2229,4.9432 c -10.5725,2.71877 -20.3934,5.40832 -21.824,5.97678 -2.2165,0.88075 -3.0507,2.54044 -5.641,11.22391 -1.6719,5.60468 -4.709,15.59033 -6.7491,22.19033 -7.41,23.97186 -7.547,24.56395 -6.2244,26.90206 0.6686,1.18189 5.9263,8.77493 11.6836,16.87342 6.7198,9.45225 11.1001,14.72452 12.2333,14.72452 0.971,0 10.2104,-2.03605 20.5321,-4.52456 z m -138.4102,-11.22683 c 5.7713,-8.11327 11.0461,-15.96496 11.7219,-17.44821 1.1022,-2.41899 0.315,-5.49616 -7.6413,-29.86946 -4.8785,-14.94496 -9.3276,-27.29997 -9.8869,-27.45558 -0.5593,-0.15562 -5.7418,-1.74435 -11.5168,-3.53051 -5.775,-1.78617 -14.9782,-4.49624 -20.4516,-6.02238 l -9.9515,-2.77481 -3.1055,3.29272 c -2.7762,2.94361 -20.812,25.62728 -24.4118,30.70278 -1.186,1.67222 -1.2296,3.43419 -0.2639,10.67973 1.6812,12.61363 5.5564,25.1442 11.7022,37.83903 6.0835,12.56652 4.1416,11.28558 20.9821,13.84035 10.1915,1.5461 31.8658,5.17293 32.165,5.38227 0.091,0.0635 4.8869,-6.52267 10.6581,-14.63593 z m -361.3227,-63.99861 4e-4,-37.75 -37.0004,0.2739 -37.0004,0.27391 v 37.47609 37.4761 h 37 37 z m 88.9996,0.25 v -37.5 h -38 -38 v 37.5 37.5 h 38 38 z m 97,0 v -37.5 h -41.5 -41.5 v 37.5 37.5 h 41.5 41.5 z m 76.4187,34.75 c -0.3406,-1.5125 -0.9805,-4.325 -1.422,-6.25 -3.4355,-14.98008 -3.6738,-40.30535 -0.5222,-55.5 0.7986,-3.85 1.4685,-7.7875 1.4887,-8.75 0.034,-1.63041 -2.1159,-1.75 -31.4632,-1.75 h -31.5 v 37.5 37.5 h 32.019 32.0191 z m 122.8313,-75.00483 22.75,-15.45238 -0.023,-20.64639 -0.023,-20.6464 -13.2269,-8.41907 c -7.2748,-4.63049 -16.284,-10.41554 -20.0204,-12.85568 l -6.7934,-4.43661 -5.8521,2.18854 c -7.0843,2.64935 -22.7031,11.8103 -29.561,17.33854 -2.75,2.2168 -8.4875,7.42958 -12.75,11.58395 -6.9231,6.74748 -7.75,7.95018 -7.75,11.27202 0,3.00877 1.9574,17.89513 4.4431,33.79056 0.2182,1.39576 0.6904,4.40916 1.0493,6.69645 0.7645,4.87262 -0.8569,4.07301 23.5076,11.59301 13.3341,4.11555 17.9761,5.16857 19.5,4.42358 1.1,-0.53776 12.2375,-7.93131 24.75,-16.43012 z m 123.4147,5.4234 c 0.4571,-0.45704 2.3216,-11.53886 5.386,-32.01078 l 2.2216,-14.84221 -8.3861,-8.50656 c -11.0108,-11.16882 -24.1328,-20.96519 -35.9123,-26.81068 l -9.5261,-4.72725 -9.2887,5.63244 c -5.1088,3.09784 -10.4971,6.4698 -11.9739,7.49325 -1.4769,1.02345 -6.8477,4.44884 -11.9352,7.61198 l -9.25,5.75116 v 18.67891 c 0,13.42429 0.3516,19.1284 1.25,20.27674 0.6875,0.87881 11.4968,8.52895 24.0208,17.00032 l 22.7708,15.40249 20.1185,-5.28181 c 11.0651,-2.90499 20.2922,-5.45559 20.5046,-5.668 z m -508.6647,-54.16857 v -37.5 h -37 -37 v 37.5 37.5 h 37 37 z m 89,0 v -37.5 h -38 -38 v 37.5 37.5 h 38 38 z m 97,0 v -37.5 h -41.5 -41.5 v 37.5 37.5 h 41.5 41.5 z m 83.7772,31.25 c 1.4452,-3.4375 5.0115,-10.92173 7.9252,-16.63162 l 5.2976,-10.38162 V 489.253 468.38462 h -42 -42 v 37.5 37.5 h 34.0748 34.0749 z m 285.2228,-38.25 v -30.5 h -24.0326 -24.0325 l 14.3556,14.25 c 15.0579,14.9472 23.0265,25.52587 29.7349,39.47469 1.911,3.97358 3.5871,7.23608 3.7246,7.25 0.1375,0.0139 0.25,-13.69969 0.25,-30.47469 z m -242.5,-22.75402 c 1.65,-1.38588 4.35,-3.68145 6,-5.10128 l 3,-2.5815 -12.125,-0.0316 -12.125,-0.0316 -0.625,3.125 c -0.3438,1.71875 -0.625,6.99418 -0.625,11.72318 v 8.59818 l 6.75,-6.5903 c 3.7125,-3.62467 8.1,-7.72421 9.75,-9.11008 z m 217.25,-21.74081 25.25,-0.005 v -36.5 -36.5 h -36.5 -36.5 v 36.42668 c 0,33.82527 0.1249,36.46419 1.75,36.95202 0.9625,0.28894 6.025,0.32427 11.25,0.0785 5.225,-0.24577 20.8625,-0.44918 34.75,-0.45203 z m -529.75,-36.50517 v -36.5 h -36.5 -36.5 v 36.5 36.5 h 36.5 36.5 z m 89.0003,0.25 4e-4,-36.25 -38.0004,0.27335 -38.0003,0.27334 v 35.97666 35.97665 h 38 38 z m 96.6067,34.66821 c -0.3339,-0.86998 -0.607,-17.29498 -0.607,-36.5 v -34.91821 h -40.941 c -22.5176,0 -41.0801,0.3375 -41.25,0.75 -0.17,0.4125 -0.1854,16.8375 -0.034,36.5 l 0.2748,35.75 h 41.5822 c 37.5067,0 41.5227,-0.15503 40.9752,-1.58179 z m 97.393,-34.91821 v -36.5 h -42 -42 v 36.5 36.5 h 42 42 z m 77,31.54187 c 6.875,-2.40463 13.5125,-4.73812 14.75,-5.18553 l 2.25,-0.81346 v -31.02144 -31.02144 l -40.25,5e-5 -40.25,6e-5 v 36.53141 36.53141 l 25.5,-0.32449 25.5,-0.3245 z m 109.8373,-34.29187 -0.3373,-33.25 -39.25,-0.26161 -39.25,-0.2616 v 29.64753 29.64753 l 4.75,-0.72805 c 2.6125,-0.40043 11.05,-0.89288 18.75,-1.09432 16.2579,-0.42534 25.5731,0.86465 42.5,5.88553 6.325,1.87613 11.8767,3.46826 12.3373,3.53807 0.4605,0.0698 0.6855,-14.83558 0.5,-33.12308 z m -473.8373,-51.30588 c 0,-1.83068 -10.8682,-53.6456 -11.3541,-54.1315 -0.182,-0.18202 -23.3054,-0.21433 -51.3853,-0.0718 l -51.0544,0.25917 9.1469,12.0994 c 5.0308,6.65467 14.4501,19.14217 20.9318,27.75 l 11.785,15.65061 h 35.965 c 31.8764,0 35.9651,-0.17688 35.9651,-1.55588 z m 92.6489,-1.69412 c -0.3154,-1.7875 -1.3232,-8.875 -2.2395,-15.75 -0.9162,-6.875 -2.4064,-17.9 -3.3116,-24.5 l -1.6457,-12 -41.2261,-0.26109 c -35.0759,-0.22215 -41.226,-0.0492 -41.226,1.15942 0,0.78128 1.6012,8.99877 3.5584,18.26109 1.9571,9.26232 4.2296,20.44058 5.0501,24.84058 0.8204,4.4 1.7244,8.7875 2.0089,9.75 0.4814,1.62844 3.2641,1.75 40.0612,1.75 h 39.5439 z m 96.3511,-24.10754 v -27.35755 l -6.1467,-0.64245 c -5.6646,-0.59207 -83.8643,-0.95811 -83.8446,-0.39246 0.066,1.90062 5.8426,48.22427 6.5467,52.5 l 0.5352,3.25 h 41.4547 41.4547 z m 97.0027,26.60754 c 0,-0.4125 1.5765,-12.43645 3.5,-26.71989 1.9235,-14.28345 3.4973,-26.32095 3.4973,-26.75 0,-0.42906 -20.25,-0.78011 -45,-0.78011 h -45 v 27.5 27.5 h 41.5 c 22.825,0 41.5012,-0.3375 41.5027,-0.75 z m 102.9007,-25.51858 c 4.0718,-14.42728 7.6118,-27.01892 7.8666,-27.98142 0.4361,-1.64765 -2.1754,-1.75 -44.6534,-1.75 -35.387,0 -45.1327,0.26957 -45.1909,1.25 -0.041,0.6875 -0.2391,2.15 -0.4405,3.25 -0.2014,1.1 -1.7507,11.675 -3.4431,23.5 -1.6923,11.825 -3.3145,22.9625 -3.6048,24.75 l -0.528,3.25 41.2954,-0.0186 41.2953,-0.0186 z m 95.5966,-0.42592 c 6.05,-14.66509 11.1455,-27.25818 11.3233,-27.98465 0.2641,-1.07882 -7.4647,-1.32085 -42.1791,-1.32085 h -42.5023 l -1.4821,5.25 c -0.8151,2.8875 -4.372,15.4875 -7.9042,28 l -6.4222,22.75 39.0833,-0.0154 39.0833,-0.0154 z m 90.3529,10.4445 c 7.1121,-8.9375 16.984,-21.425 21.9375,-27.75 l 9.0064,-11.5 -47.0885,-0.25991 c -25.8987,-0.14295 -47.4179,0.082 -47.8204,0.5 -0.4025,0.41795 -3.4301,7.50991 -6.728,15.75991 -3.2978,8.25 -8.283,20.38269 -11.078,26.96153 -2.7951,6.57885 -5.0819,12.09135 -5.0819,12.25 0,0.15866 16.6324,0.28847 36.9609,0.28847 h 36.9608 z"
       id="path1" />
  </g>
</svg>
